<svg id="Layer_1" data-name="Layer 1" xmlns="http://www.w3.org/2000/svg" viewBox="0 0 175.66 154.46"><defs><style>.cls-1{fill:#595fab;}</style></defs><path class="cls-1" d="M117.8,0h-60L37.58,67.09A124.61,124.61,0,0,0,74.21,77L87.85,31.56,101.4,76.88a124.69,124.69,0,0,0,36.53-10Z"/><path class="cls-1" d="M150.42,108.32l13.9,46.14H124.58l-7.43-24.56-3.1-10.49a153,153,0,0,1-23.46,2.28l-3.07,0a152.73,152.73,0,0,1-26-2.22l-3.08,10.4-7.33,24.56H11.26l13.83-45.91A155.92,155.92,0,0,1,0,94.78L17.78,68.57A125.61,125.61,0,0,0,90,90a125.77,125.77,0,0,0,67.79-21.82l17.92,26.1A156.79,156.79,0,0,1,150.42,108.32Z"/></svg>