<svg id="Layer_1" data-name="Layer 1" xmlns="http://www.w3.org/2000/svg" viewBox="0 0 830.43 248.34"><defs><style>.cls-1,.cls-2,.cls-6{fill:#fff;}.cls-2{font-size:220.17px;font-family:Neometric-ExtraBold, Neometric;font-weight:800;}.cls-3{letter-spacing:-0.03em;}.cls-4{letter-spacing:-0.03em;}.cls-5{letter-spacing:-0.01em;}.cls-6{font-size:35.22px;font-family:Arial-BoldMT, Arial;font-weight:700;}</style></defs><path class="cls-1" d="M123.52,2.9h-60L43.31,70a124.84,124.84,0,0,0,36.63,9.85L93.57,34.47l13.55,45.32a125.07,125.07,0,0,0,36.54-10Z" transform="translate(-5.73 29.8)"/><path class="cls-1" d="M156.15,111.22l13.9,46.15H130.31l-7.43-24.56-3.11-10.5a152.68,152.68,0,0,1-23.46,2.29c-1,0-2,0-3.06,0a152.62,152.62,0,0,1-26-2.23l-3.08,10.41-7.33,24.56H17l13.83-45.91A157.5,157.5,0,0,1,5.73,97.69L23.5,71.48A125.68,125.68,0,0,0,95.68,92.94a125.82,125.82,0,0,0,67.79-21.83l17.92,26.11A156.86,156.86,0,0,1,156.15,111.22Z" transform="translate(-5.73 29.8)"/><text class="cls-2" transform="translate(125.41 187.17)"><tspan xml:space="preserve"> g</tspan><tspan class="cls-3" x="204.58" y="0">e</tspan><tspan class="cls-4" x="342.08" y="0">t</tspan><tspan class="cls-5" x="436.69" y="0">o</tspan><tspan x="581.39" y="0">s</tspan></text><text class="cls-6" transform="translate(789.45 64.23)">™️</text></svg>